<svg width="72" height="64" viewBox="0 0 72 64" fill="none" xmlns="http://www.w3.org/2000/svg">
<line x1="37" y1="22" x2="37" y2="26" stroke="#1F2360" stroke-width="2"/>
<line x1="37" y1="39" x2="37" y2="43" stroke="#1F2360" stroke-width="2"/>
<rect x="9" y="9" width="54" height="12" rx="2.05085" stroke="#1F2360" stroke-width="2"/>
<rect x="12.5" y="13.5" width="25" height="3" rx="1.5" fill="#5AB7C1" stroke="#5AB7C1"/>
<rect x="42" y="9" width="20" height="12" fill="#1F2360"/>
<circle cx="48.5" cy="15.5" r="2.5" fill="white"/>
<circle cx="57.5" cy="15.5" r="2.5" fill="white"/>
<rect x="9" y="26" width="54" height="12" rx="2.05085" stroke="#1F2360" stroke-width="2"/>
<rect x="12.5" y="30.5" width="25" height="3" rx="1.5" fill="#5AB7C1" stroke="#5AB7C1"/>
<rect x="42" y="26" width="20" height="12" fill="#1F2360"/>
<circle cx="48.5" cy="32.5" r="2.5" fill="white"/>
<circle cx="57.5" cy="32.5" r="2.5" fill="white"/>
<rect x="9" y="43" width="54" height="12" rx="2.05085" stroke="#1F2360" stroke-width="2"/>
<rect x="12.5" y="47.5" width="25" height="3" rx="1.5" fill="#5AB7C1" stroke="#5AB7C1"/>
<rect x="42" y="43" width="20" height="12" fill="#1F2360"/>
<circle cx="48.5" cy="49.5" r="2.5" fill="white"/>
<circle cx="57.5" cy="49.5" r="2.5" fill="white"/>
<path d="M44.058 57.4008L44.0546 57.4002C41.8527 56.9977 38.9973 56.1786 36.7212 54.9246C34.3864 53.6383 33.0005 52.0941 33.0005 50.3511V17.6634C33.0005 16.655 33.4599 15.6822 34.4024 14.7493C35.3539 13.8076 36.7548 12.9546 38.4943 12.2374C41.9707 10.8041 46.5866 10 51.0004 10C56.1377 10 60.74 10.9516 64.0206 12.4476C67.3903 13.9842 69.0002 15.903 69.0002 17.6634V50.3511C69.0002 51.5711 68.3259 52.7639 66.9158 53.8799C65.5037 54.9975 63.4513 55.9516 60.9773 56.6607C56.0335 58.0777 49.6592 58.4452 44.058 57.4008Z" fill="white" stroke="#1F2360" stroke-width="2"/>
<path d="M33 43.5542V43.2369C33.1037 43.3231 33.2102 43.408 33.3193 43.4915C34.3866 44.3093 35.7651 45.052 37.3861 45.6852C40.6294 46.9524 44.9377 47.8181 49.9162 47.9283L49.9175 47.9283C55.4835 48.044 60.3078 47.2336 63.9312 45.9398C65.7419 45.2932 67.2772 44.5173 68.4597 43.6562C68.647 43.5199 68.8273 43.38 68.9997 43.2367V43.5542C67.2474 45.0172 64.6939 46.1746 61.6461 46.9757C58.4185 47.8242 54.7144 48.2528 50.9952 48.252C47.2761 48.2513 43.5727 47.8214 40.3466 46.9725C37.3005 46.171 34.7494 45.0144 33 43.5542Z" fill="white" stroke="#1F2360" stroke-width="2"/>
<path d="M51.0004 10C56.1377 10 60.74 10.9516 64.0206 12.4476C67.3903 13.9842 69.0002 15.903 69.0002 17.6634C69.0002 19.4246 67.3901 21.3438 64.0205 22.8805C60.74 24.3766 56.1377 25.3282 51.0004 25.3282C45.863 25.3282 41.2607 24.3766 37.9802 22.8805C34.6106 21.3438 33.0005 19.4246 33.0005 17.6634C33.0005 16.6779 33.4488 15.7163 34.377 14.7876C35.3133 13.8507 36.6955 12.9954 38.4212 12.2727C41.87 10.8285 46.484 10 51.0004 10Z" fill="white" stroke="#1F2360" stroke-width="2"/>
<path d="M68.9997 32.3212C68.9646 32.3504 68.9291 32.3794 68.8933 32.4083C67.9352 33.182 66.7036 33.8902 65.2575 34.5062C62.3647 35.7384 58.5251 36.6396 54.0629 36.9259L68.9997 32.3212ZM68.9997 32.3212V32.6377C67.2516 34.0964 64.7003 35.2513 61.6529 36.0512C58.4252 36.8984 54.7196 37.3267 50.9986 37.3265C47.2776 37.3263 43.5722 36.8976 40.345 36.0503C37.298 35.2504 34.7473 34.0957 33 32.6377M68.9997 32.3212L33 32.6377M33 32.6377V32.3273C33.2733 32.5542 33.5662 32.7721 33.875 32.9809C35.2179 33.8886 36.9548 34.6856 38.9727 35.326C43.0108 36.6077 48.2855 37.2978 54.0627 36.9259L33 32.6377Z" fill="white" stroke="#1F2360" stroke-width="2"/>
<path d="M44.1189 57.0718L44.1142 57.071C41.9336 56.6723 39.1161 55.8622 36.8822 54.6315C34.5699 53.3576 33.3347 51.8994 33.3347 50.3511V17.6634C33.3347 16.7679 33.7394 15.876 34.6374 14.9872C35.5473 14.0866 36.9056 13.2542 38.6214 12.5468C42.0494 11.1334 46.6204 10.3347 50.9998 10.3347C56.1005 10.3347 60.6534 11.2802 63.8811 12.7521C67.2279 14.2782 68.665 16.1144 68.665 17.6634V50.3511C68.665 51.4327 68.0707 52.5386 66.7075 53.6175C65.3417 54.6985 63.3343 55.6368 60.8846 56.339C55.9906 57.7417 49.6689 58.1067 44.1189 57.0718Z" stroke="#1F2360" stroke-width="2.66935"/>
<mask id="path-23-inside-1" fill="white">
<path d="M69.9997 40.3687V44.0088C62.3193 51.0056 39.6674 50.9939 32 44.0088V40.3687C33.1798 43.5319 40.1739 46.7125 49.9382 46.9285C60.8653 47.1557 68.7418 43.7399 69.9997 40.3687Z"/>
</mask>
<path d="M69.9997 40.3687H72.669L67.4987 39.4355L69.9997 40.3687ZM69.9997 44.0088L71.7973 45.9821L72.669 45.188V44.0088H69.9997ZM32 44.0088H29.3307V45.188L30.2023 45.9821L32 44.0088ZM32 40.3687L34.501 39.4358L29.3307 40.3687H32ZM49.9382 46.9285L49.8792 49.5972L49.8827 49.5973L49.9382 46.9285ZM67.3303 40.3687V44.0088H72.669V40.3687H67.3303ZM68.202 42.0356C66.7251 43.3811 64.3298 44.5442 61.2216 45.3613C58.154 46.1677 54.5952 46.5834 50.9955 46.5827C47.3959 46.582 43.8377 46.1649 40.7713 45.3581C37.6643 44.5406 35.2714 43.3781 33.7977 42.0356L30.2023 45.9821C32.5623 48.1321 35.8762 49.5905 39.4129 50.5211C42.9902 51.4623 47.0127 51.9206 50.9945 51.9214C54.9763 51.9222 58.9997 51.4655 62.579 50.5245C66.1178 49.5942 69.4341 48.135 71.7973 45.9821L68.202 42.0356ZM34.6693 44.0088V40.3687H29.3307V44.0088H34.6693ZM29.499 41.3015C30.0334 42.7344 31.1084 43.9006 32.304 44.8167C33.5267 45.7534 35.0529 46.566 36.7786 47.2401C40.2337 48.59 44.7399 49.4835 49.8792 49.5972L49.9973 44.2598C45.3722 44.1575 41.4993 43.3528 38.7213 42.2675C37.3304 41.7241 36.2766 41.1348 35.5509 40.5788C34.7983 40.0021 34.5565 39.5845 34.501 39.4358L29.499 41.3015ZM49.8827 49.5973C55.6198 49.7166 60.6501 48.8839 64.4925 47.5119C66.411 46.8269 68.0986 45.9841 69.4422 45.0058C70.7515 44.0525 71.9324 42.8247 72.5006 41.3018L67.4987 39.4355C67.438 39.5982 67.1626 40.0617 66.2998 40.6899C65.4714 41.2931 64.2711 41.9222 62.6973 42.4841C59.5552 43.606 55.1837 44.3676 49.9937 44.2598L49.8827 49.5973Z" fill="#1F2360" mask="url(#path-23-inside-1)"/>
<path d="M50.9998 10.3347C56.1005 10.3347 60.6534 11.2802 63.8811 12.7521C67.2279 14.2782 68.665 16.1144 68.665 17.6634C68.665 19.2132 67.2277 21.0497 63.8811 22.576C60.6534 24.048 56.1005 24.9935 50.9998 24.9935C45.8992 24.9935 41.3463 24.048 38.1186 22.576C34.772 21.0497 33.3347 19.2132 33.3347 17.6634C33.3347 16.7901 33.7289 15.909 34.6132 15.0242C35.5084 14.1285 36.8483 13.294 38.55 12.5814C41.9499 11.1576 46.5184 10.3347 50.9998 10.3347Z" stroke="#1F2360" stroke-width="2.66935"/>
<mask id="path-26-inside-2" fill="white">
<path d="M69.9997 29.4536V33.0923C62.3373 40.0728 39.6589 40.0697 32 33.0923V29.4536C33.402 33.2096 42.6655 36.6576 53.9986 35.928C62.7425 35.3669 68.8995 32.4023 69.9997 29.4536Z"/>
</mask>
<path d="M69.9997 33.0923L71.7973 35.0656L72.669 34.2715V33.0923H69.9997ZM32 33.0923H29.3307V34.2715L30.2023 35.0656L32 33.0923ZM32 29.4536L34.5008 28.5201L29.3307 29.4536H32ZM53.9986 35.928L53.8277 33.2641L53.8271 33.2641L53.9986 35.928ZM67.3303 29.4536V33.0923H72.669V29.4536H67.3303ZM68.202 31.1191C66.7305 32.4596 64.3379 33.6205 61.229 34.4365C58.1611 35.2418 54.6005 35.6574 50.9987 35.6572C47.3969 35.657 43.8364 35.2411 40.7689 34.4357C37.6603 33.6195 35.2683 32.4589 33.7977 31.1191L30.2023 35.0656C32.5611 37.2145 35.8761 38.6707 39.4132 39.5994C42.9913 40.5388 47.0154 40.9957 50.9984 40.9959C54.9814 40.9961 59.0057 40.5396 62.5844 39.6003C66.1221 38.6717 69.4377 37.2153 71.7973 35.0656L68.202 31.1191ZM34.6693 33.0923V29.4536H29.3307V33.0923H34.6693ZM29.4992 30.3871C30.1243 32.0619 31.4741 33.3729 32.9401 34.3639C34.4501 35.3846 36.3429 36.2428 38.4676 36.9172C42.7236 38.268 48.208 38.9756 54.1701 38.5918L53.8271 33.2641C48.4562 33.6099 43.6423 32.9584 40.0827 31.8286C38.2996 31.2627 36.9053 30.6002 35.93 29.9409C34.9106 29.2518 34.5767 28.7233 34.5008 28.5201L29.4992 30.3871ZM54.1695 38.5918C58.7826 38.2958 62.8134 37.3618 65.9117 36.042C67.4598 35.3825 68.8345 34.6014 69.942 33.7071C71.029 32.8294 72.0007 31.7267 72.5006 30.3867L67.4987 28.5205C67.4486 28.6549 67.2381 29.0285 66.588 29.5535C65.9584 30.0619 65.0411 30.6099 63.8194 31.1303C61.3782 32.1703 57.9586 32.999 53.8277 33.2641L54.1695 38.5918Z" fill="#1F2360" mask="url(#path-26-inside-2)"/>
<circle cx="51" cy="31" r="2" fill="#ED9738"/>
<circle cx="51" cy="43" r="2" fill="#ED9738"/>
<circle cx="51" cy="53" r="2" fill="#ED9738"/>
</svg>
