<svg width="1440" height="1072" viewBox="0 0 1440 1072" fill="none" xmlns="http://www.w3.org/2000/svg">
<path opacity="0.04" d="M-14.8922 0.997435H86.8037C111.292 0.997435 132.947 5.87249 151.767 15.6226C170.813 25.3727 185.552 38.9775 195.982 56.437C206.639 73.8965 211.968 93.8502 211.968 116.298C211.968 139.88 206.753 160.627 196.322 178.54C186.119 196.453 171.494 210.398 152.447 220.375C133.627 230.125 111.746 235 86.8037 235H-14.8922V0.997435ZM83.4025 173.778C100.408 173.778 113.333 168.45 122.176 157.793C131.246 146.909 135.781 132.851 135.781 115.618C135.781 99.2921 131.359 86.3676 122.516 76.8442C113.9 67.0941 100.862 62.219 83.4025 62.219H60.2743V173.778H83.4025ZM327.837 237.721C309.017 237.721 292.238 233.98 277.499 226.497C262.988 218.788 251.65 208.357 243.487 195.206C235.325 181.828 231.243 166.749 231.243 149.97C231.243 132.737 235.438 117.432 243.828 104.054C252.217 90.6757 263.554 80.3588 277.84 73.1029C292.125 65.847 307.997 62.219 325.456 62.219C342.236 62.219 356.521 65.9604 368.311 73.443C380.329 80.6989 389.286 90.6757 395.181 103.374C401.076 115.845 404.024 129.903 404.024 145.548C404.024 149.63 403.797 152.578 403.344 154.392L301.308 167.656C304.029 175.592 308.45 181.374 314.572 185.002C320.695 188.404 328.744 190.104 338.721 190.104C354.14 190.104 370.806 186.136 388.719 178.2L397.222 223.776C376.134 233.073 353.006 237.721 327.837 237.721ZM351.305 124.801C347.677 110.516 339.061 103.374 325.456 103.374C317.293 103.374 310.831 106.435 306.069 112.557C301.308 118.679 298.814 126.615 298.587 136.365L351.305 124.801ZM412.073 64.5999H490.981L517.17 166.636L542.679 64.5999H604.921L550.842 235H468.192L412.073 64.5999ZM681.554 237.721C657.746 237.721 636.885 234.206 618.972 227.177L626.795 186.703C643.12 192.598 658.993 195.546 674.411 195.546C685.749 195.546 691.417 192.372 691.417 186.023C691.417 182.848 689.717 180.241 686.316 178.2C683.141 176.159 677.019 174.345 667.949 172.758C649.129 169.13 635.524 163.008 627.135 154.392C618.972 145.775 614.89 133.531 614.89 117.659C615.797 99.7456 622.94 86.0274 636.318 76.5041C649.696 66.9807 667.949 62.219 691.077 62.219C702.868 62.219 712.958 63.0126 721.348 64.5999C729.964 65.9603 737.787 68.3412 744.816 71.7424L737.674 112.217C731.098 109.722 723.842 107.795 715.906 106.435C708.197 105.074 701.734 104.394 696.519 104.394C688.81 104.394 683.481 105.188 680.534 106.775C677.586 108.362 676.112 110.516 676.112 113.237C676.112 118.225 681.781 121.74 693.118 123.781C713.752 127.409 729.171 133.758 739.374 142.827C749.578 151.897 754.68 164.255 754.68 179.901C754.68 197.814 748.331 211.985 735.633 222.416C723.162 232.619 705.136 237.721 681.554 237.721ZM779.819 10.8609L851.585 0.317184V99.6322C856.573 87.6147 864.056 78.4314 874.033 72.0825C884.236 65.5069 896.481 62.219 910.766 62.219C932.533 62.219 949.539 70.0418 961.784 85.6873C974.255 101.106 980.49 122.534 980.49 149.97V235H909.065V142.827C909.065 133.077 906.911 125.595 902.603 120.38C898.521 115.164 892.739 112.557 885.257 112.557C879.815 112.557 874.486 114.371 869.271 117.999C864.056 121.4 859.748 126.388 856.346 132.964C853.172 139.54 851.585 147.022 851.585 155.412V235H779.819V10.8609ZM1102.77 237.721C1083.72 237.721 1066.72 233.98 1051.75 226.497C1037.01 219.014 1025.45 208.697 1017.06 195.546C1008.9 182.168 1004.82 166.863 1004.82 149.63C1004.82 132.397 1009.01 117.205 1017.4 104.054C1025.79 90.6757 1037.35 80.3588 1052.09 73.1029C1067.06 65.847 1084.06 62.219 1103.11 62.219C1122.38 62.219 1139.39 65.9604 1154.13 73.443C1169.09 80.6989 1180.66 90.9025 1188.82 104.054C1196.98 117.205 1201.07 132.397 1201.07 149.63C1201.07 167.089 1196.87 182.508 1188.48 195.886C1180.32 209.038 1168.75 219.354 1153.79 226.837C1139.05 234.093 1122.04 237.721 1102.77 237.721ZM1103.45 186.703C1112.75 186.703 1120.34 183.302 1126.24 176.499C1132.36 169.47 1135.42 160.514 1135.42 149.63C1135.42 138.746 1132.36 129.903 1126.24 123.101C1120.34 116.071 1112.75 112.557 1103.45 112.557C1094.15 112.557 1086.45 116.071 1080.32 123.101C1074.43 129.903 1071.48 138.746 1071.48 149.63C1071.48 160.514 1074.43 169.47 1080.32 176.499C1086.45 183.302 1094.15 186.703 1103.45 186.703ZM1226.56 66.9807H1298.32V96.5712C1309.21 73.6697 1327.69 62.219 1353.76 62.219C1368.96 62.219 1382.9 66.0737 1395.6 73.7831C1408.52 81.2658 1418.61 91.6961 1425.87 105.074C1433.35 118.452 1437.09 133.417 1437.09 149.97C1437.09 166.523 1433.24 181.488 1425.53 194.866C1418.05 208.244 1407.84 218.788 1394.92 226.497C1382.22 233.98 1368.62 237.721 1354.1 237.721C1328.25 237.721 1309.66 226.27 1298.32 203.369V279.216L1226.56 292.82V66.9807ZM1332.34 183.982C1341.63 183.982 1349.57 180.581 1356.14 173.778C1362.72 166.976 1366.01 159.04 1366.01 149.97C1366.01 140.447 1362.61 132.397 1355.8 125.821C1349.23 119.246 1341.41 115.958 1332.34 115.958C1323.04 115.958 1315.1 119.246 1308.53 125.821C1301.95 132.17 1298.66 139.766 1298.66 148.61V149.97C1298.66 159.493 1301.95 167.543 1308.53 174.119C1315.33 180.694 1323.27 183.982 1332.34 183.982Z" fill="#367DC1"/>
<path opacity="0.04" d="M-464.892 425.997H-363.196C-338.708 425.997 -317.053 430.872 -298.233 440.623C-279.187 450.373 -264.448 463.977 -254.018 481.437C-243.361 498.896 -238.032 518.85 -238.032 541.298C-238.032 564.88 -243.247 585.627 -253.678 603.54C-263.881 621.453 -278.506 635.398 -297.553 645.375C-316.373 655.125 -338.254 660 -363.196 660H-464.892V425.997ZM-366.598 598.778C-349.592 598.778 -336.667 593.45 -327.824 582.793C-318.754 571.909 -314.219 557.851 -314.219 540.618C-314.219 524.292 -318.641 511.368 -327.484 501.844C-336.1 492.094 -349.138 487.219 -366.598 487.219H-389.726V598.778H-366.598ZM-122.163 662.721C-140.983 662.721 -157.762 658.98 -172.501 651.497C-187.012 643.788 -198.35 633.357 -206.513 620.206C-214.675 606.828 -218.757 591.749 -218.757 574.97C-218.757 557.737 -214.562 542.432 -206.172 529.054C-197.783 515.676 -186.446 505.359 -172.16 498.103C-157.875 490.847 -142.003 487.219 -124.544 487.219C-107.764 487.219 -93.4794 490.96 -81.6885 498.443C-69.671 505.699 -60.7145 515.676 -54.8191 528.374C-48.9237 540.845 -45.9759 554.903 -45.9759 570.548C-45.9759 574.63 -46.2027 577.578 -46.6562 579.392L-148.692 592.656C-145.971 600.592 -141.55 606.374 -135.428 610.002C-129.305 613.404 -121.256 615.104 -111.279 615.104C-95.8602 615.104 -79.1943 611.136 -61.2813 603.2L-52.7784 648.776C-73.8658 658.073 -96.994 662.721 -122.163 662.721ZM-98.6946 549.801C-102.323 535.516 -110.939 528.374 -124.544 528.374C-132.707 528.374 -139.169 531.435 -143.931 537.557C-148.692 543.679 -151.186 551.615 -151.413 561.365L-98.6946 549.801ZM-37.9273 489.6H40.9805L67.1697 591.636L92.6787 489.6H154.921L100.842 660H18.1925L-37.9273 489.6ZM231.554 662.721C207.746 662.721 186.885 659.206 168.972 652.177L176.795 611.703C193.12 617.598 208.993 620.546 224.411 620.546C235.749 620.546 241.417 617.372 241.417 611.023C241.417 607.848 239.717 605.241 236.316 603.2C233.141 601.159 227.019 599.345 217.949 597.758C199.129 594.13 185.524 588.008 177.135 579.392C168.972 570.775 164.89 558.531 164.89 542.659C165.797 524.746 172.94 511.027 186.318 501.504C199.696 491.981 217.949 487.219 241.077 487.219C252.868 487.219 262.958 488.013 271.348 489.6C279.964 490.96 287.787 493.341 294.816 496.742L287.674 537.217C281.098 534.722 273.842 532.795 265.906 531.435C258.197 530.074 251.734 529.394 246.519 529.394C238.81 529.394 233.481 530.188 230.534 531.775C227.586 533.362 226.112 535.516 226.112 538.237C226.112 543.225 231.781 546.74 243.118 548.781C263.752 552.409 279.171 558.758 289.374 567.827C299.578 576.897 304.68 589.255 304.68 604.901C304.68 622.814 298.331 636.985 285.633 647.416C273.162 657.619 255.136 662.721 231.554 662.721ZM329.819 435.861L401.585 425.317V524.632C406.573 512.615 414.056 503.431 424.033 497.083C434.236 490.507 446.481 487.219 460.766 487.219C482.533 487.219 499.539 495.042 511.784 510.687C524.255 526.106 530.49 547.534 530.49 574.97V660H459.065V567.827C459.065 558.077 456.911 550.595 452.603 545.38C448.521 540.164 442.739 537.557 435.257 537.557C429.815 537.557 424.486 539.371 419.271 542.999C414.056 546.4 409.748 551.388 406.346 557.964C403.172 564.54 401.585 572.022 401.585 580.412V660H329.819V435.861ZM652.771 662.721C633.725 662.721 616.719 658.98 601.753 651.497C587.015 644.014 575.451 633.697 567.061 620.546C558.898 607.168 554.817 591.863 554.817 574.63C554.817 557.397 559.012 542.205 567.401 529.054C575.791 515.676 587.355 505.359 602.093 498.103C617.059 490.847 634.065 487.219 653.111 487.219C672.385 487.219 689.391 490.96 704.129 498.443C719.095 505.699 730.659 515.902 738.822 529.054C746.985 542.205 751.066 557.397 751.066 574.63C751.066 592.089 746.871 607.508 738.482 620.886C730.319 634.038 718.755 644.354 703.789 651.837C689.051 659.093 672.045 662.721 652.771 662.721ZM653.452 611.703C662.748 611.703 670.344 608.302 676.24 601.499C682.362 594.47 685.423 585.514 685.423 574.63C685.423 563.746 682.362 554.903 676.24 548.101C670.344 541.071 662.748 537.557 653.452 537.557C644.155 537.557 636.446 541.071 630.323 548.101C624.428 554.903 621.48 563.746 621.48 574.63C621.48 585.514 624.428 594.47 630.323 601.499C636.446 608.302 644.155 611.703 653.452 611.703ZM776.559 491.981H848.324V521.571C859.208 498.67 877.688 487.219 903.764 487.219C918.956 487.219 932.901 491.074 945.599 498.783C958.523 506.266 968.614 516.696 975.869 530.074C983.352 543.452 987.093 558.417 987.093 574.97C987.093 591.523 983.239 606.488 975.529 619.866C968.047 633.244 957.843 643.788 944.919 651.497C932.221 658.98 918.616 662.721 904.104 662.721C878.255 662.721 859.662 651.27 848.324 628.369V704.216L776.559 717.82V491.981ZM882.336 608.982C891.633 608.982 899.569 605.581 906.145 598.778C912.72 591.976 916.008 584.04 916.008 574.97C916.008 565.447 912.607 557.397 905.805 550.821C899.229 544.246 891.406 540.958 882.336 540.958C873.04 540.958 865.104 544.246 858.528 550.821C851.952 557.17 848.665 564.766 848.665 573.61V574.97C848.665 584.493 851.952 592.543 858.528 599.119C865.33 605.694 873.267 608.982 882.336 608.982Z" fill="#367DC1"/>
<path opacity="0.07" d="M-114.64 277.928H-71.584C-61.216 277.928 -52.048 279.992 -44.08 284.12C-36.016 288.248 -29.776 294.008 -25.36 301.4C-20.848 308.792 -18.592 317.24 -18.592 326.744C-18.592 336.728 -20.8 345.512 -25.216 353.096C-29.536 360.68 -35.728 366.584 -43.792 370.808C-51.76 374.936 -61.024 377 -71.584 377H-114.64V277.928ZM-73.024 351.08C-65.824 351.08 -60.352 348.824 -56.608 344.312C-52.768 339.704 -50.848 333.752 -50.848 326.456C-50.848 319.544 -52.72 314.072 -56.464 310.04C-60.112 305.912 -65.632 303.848 -73.024 303.848H-82.816V351.08H-73.024ZM30.4648 378.152C22.4968 378.152 15.3928 376.568 9.15275 373.4C3.00875 370.136 -1.79125 365.72 -5.24725 360.152C-8.70325 354.488 -10.4312 348.104 -10.4312 341C-10.4312 333.704 -8.65525 327.224 -5.10325 321.56C-1.55125 315.896 3.24875 311.528 9.29675 308.456C15.3448 305.384 22.0648 303.848 29.4568 303.848C36.5608 303.848 42.6088 305.432 47.6008 308.6C52.6888 311.672 56.4808 315.896 58.9768 321.272C61.4728 326.552 62.7208 332.504 62.7208 339.128C62.7208 340.856 62.6248 342.104 62.4328 342.872L19.2328 348.488C20.3848 351.848 22.2568 354.296 24.8488 355.832C27.4408 357.272 30.8488 357.992 35.0728 357.992C41.6008 357.992 48.6568 356.312 56.2408 352.952L59.8408 372.248C50.9128 376.184 41.1208 378.152 30.4648 378.152ZM40.4008 330.344C38.8648 324.296 35.2168 321.272 29.4568 321.272C26.0008 321.272 23.2648 322.568 21.2488 325.16C19.2328 327.752 18.1768 331.112 18.0808 335.24L40.4008 330.344ZM66.1284 304.856H99.5364L110.624 348.056L121.424 304.856H147.776L124.88 377H89.8884L66.1284 304.856ZM180.221 378.152C170.141 378.152 161.309 376.664 153.725 373.688L157.037 356.552C163.949 359.048 170.669 360.296 177.197 360.296C181.997 360.296 184.397 358.952 184.397 356.264C184.397 354.92 183.677 353.816 182.237 352.952C180.893 352.088 178.301 351.32 174.461 350.648C166.493 349.112 160.733 346.52 157.181 342.872C153.725 339.224 151.997 334.04 151.997 327.32C152.381 319.736 155.405 313.928 161.069 309.896C166.733 305.864 174.461 303.848 184.253 303.848C189.245 303.848 193.517 304.184 197.069 304.856C200.717 305.432 204.029 306.44 207.005 307.88L203.981 325.016C201.197 323.96 198.125 323.144 194.765 322.568C191.501 321.992 188.765 321.704 186.557 321.704C183.293 321.704 181.037 322.04 179.789 322.712C178.541 323.384 177.917 324.296 177.917 325.448C177.917 327.56 180.317 329.048 185.117 329.912C193.853 331.448 200.381 334.136 204.701 337.976C209.021 341.816 211.181 347.048 211.181 353.672C211.181 361.256 208.493 367.256 203.117 371.672C197.837 375.992 190.205 378.152 180.221 378.152ZM221.825 282.104L252.209 277.64V319.688C254.321 314.6 257.489 310.712 261.713 308.024C266.033 305.24 271.217 303.848 277.265 303.848C286.481 303.848 293.681 307.16 298.865 313.784C304.145 320.312 306.785 329.384 306.785 341V377H276.545V337.976C276.545 333.848 275.633 330.68 273.809 328.472C272.081 326.264 269.633 325.16 266.465 325.16C264.161 325.16 261.905 325.928 259.697 327.464C257.489 328.904 255.665 331.016 254.225 333.8C252.881 336.584 252.209 339.752 252.209 343.304V377H221.825V282.104ZM358.556 378.152C350.492 378.152 343.292 376.568 336.956 373.4C330.716 370.232 325.82 365.864 322.268 360.296C318.812 354.632 317.084 348.152 317.084 340.856C317.084 333.56 318.86 327.128 322.412 321.56C325.964 315.896 330.86 311.528 337.1 308.456C343.436 305.384 350.636 303.848 358.7 303.848C366.86 303.848 374.06 305.432 380.3 308.6C386.636 311.672 391.532 315.992 394.988 321.56C398.444 327.128 400.172 333.56 400.172 340.856C400.172 348.248 398.396 354.776 394.844 360.44C391.388 366.008 386.492 370.376 380.156 373.544C373.916 376.616 366.716 378.152 358.556 378.152ZM358.844 356.552C362.78 356.552 365.996 355.112 368.492 352.232C371.084 349.256 372.38 345.464 372.38 340.856C372.38 336.248 371.084 332.504 368.492 329.624C365.996 326.648 362.78 325.16 358.844 325.16C354.908 325.16 351.644 326.648 349.052 329.624C346.556 332.504 345.308 336.248 345.308 340.856C345.308 345.464 346.556 349.256 349.052 352.232C351.644 355.112 354.908 356.552 358.844 356.552ZM410.966 305.864H441.35V318.392C445.958 308.696 453.782 303.848 464.822 303.848C471.254 303.848 477.158 305.48 482.534 308.744C488.006 311.912 492.278 316.328 495.35 321.992C498.518 327.656 500.102 333.992 500.102 341C500.102 348.008 498.47 354.344 495.206 360.008C492.038 365.672 487.718 370.136 482.246 373.4C476.87 376.568 471.11 378.152 464.966 378.152C454.022 378.152 446.15 373.304 441.35 363.608V395.72L410.966 401.48V305.864ZM455.75 355.4C459.686 355.4 463.046 353.96 465.83 351.08C468.614 348.2 470.006 344.84 470.006 341C470.006 336.968 468.566 333.56 465.686 330.776C462.902 327.992 459.59 326.6 455.75 326.6C451.814 326.6 448.454 327.992 445.67 330.776C442.886 333.464 441.494 336.68 441.494 340.424V341C441.494 345.032 442.886 348.44 445.67 351.224C448.55 354.008 451.91 355.4 455.75 355.4Z" fill="#367DC1"/>
<path opacity="0.07" d="M1050.36 530.928H1093.42C1103.78 530.928 1112.95 532.992 1120.92 537.12C1128.98 541.248 1135.22 547.008 1139.64 554.4C1144.15 561.792 1146.41 570.24 1146.41 579.744C1146.41 589.728 1144.2 598.512 1139.78 606.096C1135.46 613.68 1129.27 619.584 1121.21 623.808C1113.24 627.936 1103.98 630 1093.42 630H1050.36V530.928ZM1091.98 604.08C1099.18 604.08 1104.65 601.824 1108.39 597.312C1112.23 592.704 1114.15 586.752 1114.15 579.456C1114.15 572.544 1112.28 567.072 1108.54 563.04C1104.89 558.912 1099.37 556.848 1091.98 556.848H1082.18V604.08H1091.98ZM1195.46 631.152C1187.5 631.152 1180.39 629.568 1174.15 626.4C1168.01 623.136 1163.21 618.72 1159.75 613.152C1156.3 607.488 1154.57 601.104 1154.57 594C1154.57 586.704 1156.34 580.224 1159.9 574.56C1163.45 568.896 1168.25 564.528 1174.3 561.456C1180.34 558.384 1187.06 556.848 1194.46 556.848C1201.56 556.848 1207.61 558.432 1212.6 561.6C1217.69 564.672 1221.48 568.896 1223.98 574.272C1226.47 579.552 1227.72 585.504 1227.72 592.128C1227.72 593.856 1227.62 595.104 1227.43 595.872L1184.23 601.488C1185.38 604.848 1187.26 607.296 1189.85 608.832C1192.44 610.272 1195.85 610.992 1200.07 610.992C1206.6 610.992 1213.66 609.312 1221.24 605.952L1224.84 625.248C1215.91 629.184 1206.12 631.152 1195.46 631.152ZM1205.4 583.344C1203.86 577.296 1200.22 574.272 1194.46 574.272C1191 574.272 1188.26 575.568 1186.25 578.16C1184.23 580.752 1183.18 584.112 1183.08 588.24L1205.4 583.344ZM1231.13 557.856H1264.54L1275.62 601.056L1286.42 557.856H1312.78L1289.88 630H1254.89L1231.13 557.856ZM1345.22 631.152C1335.14 631.152 1326.31 629.664 1318.73 626.688L1322.04 609.552C1328.95 612.048 1335.67 613.296 1342.2 613.296C1347 613.296 1349.4 611.952 1349.4 609.264C1349.4 607.92 1348.68 606.816 1347.24 605.952C1345.89 605.088 1343.3 604.32 1339.46 603.648C1331.49 602.112 1325.73 599.52 1322.18 595.872C1318.73 592.224 1317 587.04 1317 580.32C1317.38 572.736 1320.41 566.928 1326.07 562.896C1331.73 558.864 1339.46 556.848 1349.25 556.848C1354.25 556.848 1358.52 557.184 1362.07 557.856C1365.72 558.432 1369.03 559.44 1372.01 560.88L1368.98 578.016C1366.2 576.96 1363.13 576.144 1359.77 575.568C1356.5 574.992 1353.77 574.704 1351.56 574.704C1348.29 574.704 1346.04 575.04 1344.79 575.712C1343.54 576.384 1342.92 577.296 1342.92 578.448C1342.92 580.56 1345.32 582.048 1350.12 582.912C1358.85 584.448 1365.38 587.136 1369.7 590.976C1374.02 594.816 1376.18 600.048 1376.18 606.672C1376.18 614.256 1373.49 620.256 1368.12 624.672C1362.84 628.992 1355.21 631.152 1345.22 631.152ZM1386.83 535.104L1417.21 530.64V572.688C1419.32 567.6 1422.49 563.712 1426.71 561.024C1431.03 558.24 1436.22 556.848 1442.27 556.848C1451.48 556.848 1458.68 560.16 1463.87 566.784C1469.15 573.312 1471.79 582.384 1471.79 594V630H1441.55V590.976C1441.55 586.848 1440.63 583.68 1438.81 581.472C1437.08 579.264 1434.63 578.16 1431.47 578.16C1429.16 578.16 1426.91 578.928 1424.7 580.464C1422.49 581.904 1420.67 584.016 1419.23 586.8C1417.88 589.584 1417.21 592.752 1417.21 596.304V630H1386.83V535.104ZM1523.56 631.152C1515.49 631.152 1508.29 629.568 1501.96 626.4C1495.72 623.232 1490.82 618.864 1487.27 613.296C1483.81 607.632 1482.08 601.152 1482.08 593.856C1482.08 586.56 1483.86 580.128 1487.41 574.56C1490.96 568.896 1495.86 564.528 1502.1 561.456C1508.44 558.384 1515.64 556.848 1523.7 556.848C1531.86 556.848 1539.06 558.432 1545.3 561.6C1551.64 564.672 1556.53 568.992 1559.99 574.56C1563.44 580.128 1565.17 586.56 1565.17 593.856C1565.17 601.248 1563.4 607.776 1559.84 613.44C1556.39 619.008 1551.49 623.376 1545.16 626.544C1538.92 629.616 1531.72 631.152 1523.56 631.152ZM1523.84 609.552C1527.78 609.552 1531 608.112 1533.49 605.232C1536.08 602.256 1537.38 598.464 1537.38 593.856C1537.38 589.248 1536.08 585.504 1533.49 582.624C1531 579.648 1527.78 578.16 1523.84 578.16C1519.91 578.16 1516.64 579.648 1514.05 582.624C1511.56 585.504 1510.31 589.248 1510.31 593.856C1510.31 598.464 1511.56 602.256 1514.05 605.232C1516.64 608.112 1519.91 609.552 1523.84 609.552ZM1575.97 558.864H1606.35V571.392C1610.96 561.696 1618.78 556.848 1629.82 556.848C1636.25 556.848 1642.16 558.48 1647.53 561.744C1653.01 564.912 1657.28 569.328 1660.35 574.992C1663.52 580.656 1665.1 586.992 1665.1 594C1665.1 601.008 1663.47 607.344 1660.21 613.008C1657.04 618.672 1652.72 623.136 1647.25 626.4C1641.87 629.568 1636.11 631.152 1629.97 631.152C1619.02 631.152 1611.15 626.304 1606.35 616.608V648.72L1575.97 654.48V558.864ZM1620.75 608.4C1624.69 608.4 1628.05 606.96 1630.83 604.08C1633.61 601.2 1635.01 597.84 1635.01 594C1635.01 589.968 1633.57 586.56 1630.69 583.776C1627.9 580.992 1624.59 579.6 1620.75 579.6C1616.81 579.6 1613.45 580.992 1610.67 583.776C1607.89 586.464 1606.49 589.68 1606.49 593.424V594C1606.49 598.032 1607.89 601.44 1610.67 604.224C1613.55 607.008 1616.91 608.4 1620.75 608.4Z" fill="#367DC1"/>
<path opacity="0.07" d="M-458.64 740.928H-415.584C-405.216 740.928 -396.048 742.992 -388.08 747.12C-380.016 751.248 -373.776 757.008 -369.36 764.4C-364.848 771.792 -362.592 780.24 -362.592 789.744C-362.592 799.728 -364.8 808.512 -369.216 816.096C-373.536 823.68 -379.728 829.584 -387.792 833.808C-395.76 837.936 -405.024 840 -415.584 840H-458.64V740.928ZM-417.024 814.08C-409.824 814.08 -404.352 811.824 -400.608 807.312C-396.768 802.704 -394.848 796.752 -394.848 789.456C-394.848 782.544 -396.72 777.072 -400.464 773.04C-404.112 768.912 -409.632 766.848 -417.024 766.848H-426.816V814.08H-417.024ZM-313.535 841.152C-321.503 841.152 -328.607 839.568 -334.847 836.4C-340.991 833.136 -345.791 828.72 -349.247 823.152C-352.703 817.488 -354.431 811.104 -354.431 804C-354.431 796.704 -352.655 790.224 -349.103 784.56C-345.551 778.896 -340.751 774.528 -334.703 771.456C-328.655 768.384 -321.935 766.848 -314.543 766.848C-307.439 766.848 -301.391 768.432 -296.399 771.6C-291.311 774.672 -287.519 778.896 -285.023 784.272C-282.527 789.552 -281.279 795.504 -281.279 802.128C-281.279 803.856 -281.375 805.104 -281.567 805.872L-324.767 811.488C-323.615 814.848 -321.743 817.296 -319.151 818.832C-316.559 820.272 -313.151 820.992 -308.927 820.992C-302.399 820.992 -295.343 819.312 -287.759 815.952L-284.159 835.248C-293.087 839.184 -302.879 841.152 -313.535 841.152ZM-303.599 793.344C-305.135 787.296 -308.783 784.272 -314.543 784.272C-317.999 784.272 -320.735 785.568 -322.751 788.16C-324.767 790.752 -325.823 794.112 -325.919 798.24L-303.599 793.344ZM-277.872 767.856H-244.464L-233.376 811.056L-222.576 767.856H-196.224L-219.12 840H-254.112L-277.872 767.856ZM-163.779 841.152C-173.859 841.152 -182.691 839.664 -190.275 836.688L-186.963 819.552C-180.051 822.048 -173.331 823.296 -166.803 823.296C-162.003 823.296 -159.603 821.952 -159.603 819.264C-159.603 817.92 -160.323 816.816 -161.763 815.952C-163.107 815.088 -165.699 814.32 -169.539 813.648C-177.507 812.112 -183.267 809.52 -186.819 805.872C-190.275 802.224 -192.003 797.04 -192.003 790.32C-191.619 782.736 -188.595 776.928 -182.931 772.896C-177.267 768.864 -169.539 766.848 -159.747 766.848C-154.755 766.848 -150.483 767.184 -146.931 767.856C-143.283 768.432 -139.971 769.44 -136.995 770.88L-140.019 788.016C-142.803 786.96 -145.875 786.144 -149.235 785.568C-152.499 784.992 -155.235 784.704 -157.443 784.704C-160.707 784.704 -162.963 785.04 -164.211 785.712C-165.459 786.384 -166.083 787.296 -166.083 788.448C-166.083 790.56 -163.683 792.048 -158.883 792.912C-150.147 794.448 -143.619 797.136 -139.299 800.976C-134.979 804.816 -132.819 810.048 -132.819 816.672C-132.819 824.256 -135.507 830.256 -140.883 834.672C-146.163 838.992 -153.795 841.152 -163.779 841.152ZM-122.175 745.104L-91.791 740.64V782.688C-89.679 777.6 -86.511 773.712 -82.287 771.024C-77.967 768.24 -72.783 766.848 -66.735 766.848C-57.519 766.848 -50.319 770.16 -45.135 776.784C-39.855 783.312 -37.215 792.384 -37.215 804V840H-67.455V800.976C-67.455 796.848 -68.367 793.68 -70.191 791.472C-71.919 789.264 -74.367 788.16 -77.535 788.16C-79.839 788.16 -82.095 788.928 -84.303 790.464C-86.511 791.904 -88.335 794.016 -89.775 796.8C-91.119 799.584 -91.791 802.752 -91.791 806.304V840H-122.175V745.104ZM14.5564 841.152C6.49238 841.152 -0.707623 839.568 -7.04362 836.4C-13.2836 833.232 -18.1796 828.864 -21.7316 823.296C-25.1876 817.632 -26.9156 811.152 -26.9156 803.856C-26.9156 796.56 -25.1396 790.128 -21.5876 784.56C-18.0356 778.896 -13.1396 774.528 -6.89962 771.456C-0.563624 768.384 6.63638 766.848 14.7004 766.848C22.8604 766.848 30.0604 768.432 36.3004 771.6C42.6364 774.672 47.5324 778.992 50.9884 784.56C54.4444 790.128 56.1724 796.56 56.1724 803.856C56.1724 811.248 54.3964 817.776 50.8444 823.44C47.3884 829.008 42.4924 833.376 36.1564 836.544C29.9164 839.616 22.7164 841.152 14.5564 841.152ZM14.8444 819.552C18.7804 819.552 21.9964 818.112 24.4924 815.232C27.0844 812.256 28.3804 808.464 28.3804 803.856C28.3804 799.248 27.0844 795.504 24.4924 792.624C21.9964 789.648 18.7804 788.16 14.8444 788.16C10.9084 788.16 7.64438 789.648 5.05238 792.624C2.55638 795.504 1.30838 799.248 1.30838 803.856C1.30838 808.464 2.55638 812.256 5.05238 815.232C7.64438 818.112 10.9084 819.552 14.8444 819.552ZM66.9656 768.864H97.3496V781.392C101.958 771.696 109.782 766.848 120.822 766.848C127.254 766.848 133.158 768.48 138.534 771.744C144.006 774.912 148.278 779.328 151.35 784.992C154.518 790.656 156.102 796.992 156.102 804C156.102 811.008 154.47 817.344 151.206 823.008C148.038 828.672 143.718 833.136 138.246 836.4C132.87 839.568 127.11 841.152 120.966 841.152C110.022 841.152 102.15 836.304 97.3496 826.608V858.72L66.9656 864.48V768.864ZM111.75 818.4C115.686 818.4 119.046 816.96 121.83 814.08C124.614 811.2 126.006 807.84 126.006 804C126.006 799.968 124.566 796.56 121.686 793.776C118.902 790.992 115.59 789.6 111.75 789.6C107.814 789.6 104.454 790.992 101.67 793.776C98.8856 796.464 97.4936 799.68 97.4936 803.424V804C97.4936 808.032 98.8856 811.44 101.67 814.224C104.55 817.008 107.91 818.4 111.75 818.4Z" fill="#367DC1"/>
<path opacity="0.09" d="M680.72 280.856H766.832C787.568 280.856 805.904 284.984 821.84 293.24C837.968 301.496 850.448 313.016 859.28 327.8C868.304 342.584 872.816 359.48 872.816 378.488C872.816 398.456 868.4 416.024 859.568 431.192C850.928 446.36 838.544 458.168 822.416 466.616C806.48 474.872 787.952 479 766.832 479H680.72V280.856ZM763.952 427.16C778.352 427.16 789.296 422.648 796.784 413.624C804.464 404.408 808.304 392.504 808.304 377.912C808.304 364.088 804.56 353.144 797.072 345.08C789.776 336.824 778.736 332.696 763.952 332.696H744.368V427.16H763.952ZM970.93 481.304C954.994 481.304 940.786 478.136 928.306 471.8C916.018 465.272 906.418 456.44 899.506 445.304C892.594 433.976 889.138 421.208 889.138 407C889.138 392.408 892.69 379.448 899.794 368.12C906.898 356.792 916.498 348.056 928.594 341.912C940.69 335.768 954.13 332.696 968.914 332.696C983.122 332.696 995.218 335.864 1005.2 342.2C1015.38 348.344 1022.96 356.792 1027.95 367.544C1032.95 378.104 1035.44 390.008 1035.44 403.256C1035.44 406.712 1035.25 409.208 1034.87 410.744L948.466 421.976C950.77 428.696 954.514 433.592 959.698 436.664C964.882 439.544 971.698 440.984 980.146 440.984C993.202 440.984 1007.31 437.624 1022.48 430.904L1029.68 469.496C1011.83 477.368 992.242 481.304 970.93 481.304ZM990.802 385.688C987.73 373.592 980.434 367.544 968.914 367.544C962.002 367.544 956.53 370.136 952.498 375.32C948.466 380.504 946.354 387.224 946.162 395.48L990.802 385.688ZM1042.26 334.712H1109.07L1131.25 421.112L1152.85 334.712H1205.55L1159.76 479H1089.78L1042.26 334.712ZM1270.44 481.304C1250.28 481.304 1232.62 478.328 1217.45 472.376L1224.07 438.104C1237.9 443.096 1251.34 445.592 1264.39 445.592C1273.99 445.592 1278.79 442.904 1278.79 437.528C1278.79 434.84 1277.35 432.632 1274.47 430.904C1271.79 429.176 1266.6 427.64 1258.92 426.296C1242.99 423.224 1231.47 418.04 1224.36 410.744C1217.45 403.448 1213.99 393.08 1213.99 379.64C1214.76 364.472 1220.81 352.856 1232.14 344.792C1243.47 336.728 1258.92 332.696 1278.51 332.696C1288.49 332.696 1297.03 333.368 1304.14 334.712C1311.43 335.864 1318.06 337.88 1324.01 340.76L1317.96 375.032C1312.39 372.92 1306.25 371.288 1299.53 370.136C1293 368.984 1287.53 368.408 1283.11 368.408C1276.59 368.408 1272.07 369.08 1269.58 370.424C1267.08 371.768 1265.83 373.592 1265.83 375.896C1265.83 380.12 1270.63 383.096 1280.23 384.824C1297.71 387.896 1310.76 393.272 1319.4 400.952C1328.04 408.632 1332.36 419.096 1332.36 432.344C1332.36 447.512 1326.99 459.512 1316.23 468.344C1305.67 476.984 1290.41 481.304 1270.44 481.304ZM1353.65 289.208L1414.42 280.28V364.376C1418.64 354.2 1424.98 346.424 1433.43 341.048C1442.07 335.48 1452.43 332.696 1464.53 332.696C1482.96 332.696 1497.36 339.32 1507.73 352.568C1518.29 365.624 1523.57 383.768 1523.57 407V479H1463.09V400.952C1463.09 392.696 1461.27 386.36 1457.62 381.944C1454.16 377.528 1449.27 375.32 1442.93 375.32C1438.32 375.32 1433.81 376.856 1429.39 379.928C1424.98 382.808 1421.33 387.032 1418.45 392.6C1415.76 398.168 1414.42 404.504 1414.42 411.608V479H1353.65V289.208ZM1627.11 481.304C1610.98 481.304 1596.58 478.136 1583.91 471.8C1571.43 465.464 1561.64 456.728 1554.54 445.592C1547.62 434.264 1544.17 421.304 1544.17 406.712C1544.17 392.12 1547.72 379.256 1554.82 368.12C1561.93 356.792 1571.72 348.056 1584.2 341.912C1596.87 335.768 1611.27 332.696 1627.4 332.696C1643.72 332.696 1658.12 335.864 1670.6 342.2C1683.27 348.344 1693.06 356.984 1699.98 368.12C1706.89 379.256 1710.34 392.12 1710.34 406.712C1710.34 421.496 1706.79 434.552 1699.69 445.88C1692.78 457.016 1682.98 465.752 1670.31 472.088C1657.83 478.232 1643.43 481.304 1627.11 481.304ZM1627.69 438.104C1635.56 438.104 1641.99 435.224 1646.98 429.464C1652.17 423.512 1654.76 415.928 1654.76 406.712C1654.76 397.496 1652.17 390.008 1646.98 384.248C1641.99 378.296 1635.56 375.32 1627.69 375.32C1619.82 375.32 1613.29 378.296 1608.1 384.248C1603.11 390.008 1600.62 397.496 1600.62 406.712C1600.62 415.928 1603.11 423.512 1608.1 429.464C1613.29 435.224 1619.82 438.104 1627.69 438.104ZM1731.93 336.728H1792.7V361.784C1801.92 342.392 1817.56 332.696 1839.64 332.696C1852.51 332.696 1864.32 335.96 1875.07 342.488C1886.01 348.824 1894.56 357.656 1900.7 368.984C1907.04 380.312 1910.2 392.984 1910.2 407C1910.2 421.016 1906.94 433.688 1900.41 445.016C1894.08 456.344 1885.44 465.272 1874.49 471.8C1863.74 478.136 1852.22 481.304 1839.93 481.304C1818.04 481.304 1802.3 471.608 1792.7 452.216V516.44L1731.93 527.96V336.728ZM1821.5 435.8C1829.37 435.8 1836.09 432.92 1841.66 427.16C1847.23 421.4 1850.01 414.68 1850.01 407C1850.01 398.936 1847.13 392.12 1841.37 386.552C1835.8 380.984 1829.18 378.2 1821.5 378.2C1813.63 378.2 1806.91 380.984 1801.34 386.552C1795.77 391.928 1792.99 398.36 1792.99 405.848V407C1792.99 415.064 1795.77 421.88 1801.34 427.448C1807.1 433.016 1813.82 435.8 1821.5 435.8Z" fill="#367DC1"/>
<path opacity="0.06" d="M220 728.8H339.6C368.4 728.8 393.867 734.533 416 746C438.4 757.467 455.733 773.467 468 794C480.533 814.533 486.8 838 486.8 864.4C486.8 892.133 480.667 916.533 468.4 937.6C456.4 958.667 439.2 975.067 416.8 986.8C394.667 998.267 368.933 1004 339.6 1004H220V728.8ZM335.6 932C355.6 932 370.8 925.733 381.2 913.2C391.867 900.4 397.2 883.867 397.2 863.6C397.2 844.4 392 829.2 381.6 818C371.467 806.533 356.133 800.8 335.6 800.8H308.4V932H335.6ZM623.069 1007.2C600.935 1007.2 581.202 1002.8 563.869 994C546.802 984.933 533.469 972.667 523.869 957.2C514.269 941.467 509.469 923.733 509.469 904C509.469 883.733 514.402 865.733 524.269 850C534.135 834.267 547.469 822.133 564.269 813.6C581.069 805.067 599.735 800.8 620.269 800.8C640.002 800.8 656.802 805.2 670.669 814C684.802 822.533 695.335 834.267 702.269 849.2C709.202 863.867 712.669 880.4 712.669 898.8C712.669 903.6 712.402 907.067 711.869 909.2L591.869 924.8C595.069 934.133 600.269 940.933 607.469 945.2C614.669 949.2 624.135 951.2 635.869 951.2C654.002 951.2 673.602 946.533 694.669 937.2L704.669 990.8C679.869 1001.73 652.669 1007.2 623.069 1007.2ZM650.669 874.4C646.402 857.6 636.269 849.2 620.269 849.2C610.669 849.2 603.069 852.8 597.469 860C591.869 867.2 588.935 876.533 588.669 888L650.669 874.4ZM722.134 803.6H814.934L845.734 923.6L875.734 803.6H948.934L885.334 1004H788.134L722.134 803.6ZM1039.06 1007.2C1011.06 1007.2 986.526 1003.07 965.459 994.8L974.659 947.2C993.859 954.133 1012.53 957.6 1030.66 957.6C1043.99 957.6 1050.66 953.867 1050.66 946.4C1050.66 942.667 1048.66 939.6 1044.66 937.2C1040.93 934.8 1033.73 932.667 1023.06 930.8C1000.93 926.533 984.926 919.333 975.059 909.2C965.459 899.067 960.659 884.667 960.659 866C961.726 844.933 970.126 828.8 985.859 817.6C1001.59 806.4 1023.06 800.8 1050.26 800.8C1064.13 800.8 1075.99 801.733 1085.86 803.6C1095.99 805.2 1105.19 808 1113.46 812L1105.06 859.6C1097.33 856.667 1088.79 854.4 1079.46 852.8C1070.39 851.2 1062.79 850.4 1056.66 850.4C1047.59 850.4 1041.33 851.333 1037.86 853.2C1034.39 855.067 1032.66 857.6 1032.66 860.8C1032.66 866.667 1039.33 870.8 1052.66 873.2C1076.93 877.467 1095.06 884.933 1107.06 895.6C1119.06 906.267 1125.06 920.8 1125.06 939.2C1125.06 960.267 1117.59 976.933 1102.66 989.2C1087.99 1001.2 1066.79 1007.2 1039.06 1007.2ZM1154.63 740.4L1239.03 728V844.8C1244.89 830.667 1253.69 819.867 1265.43 812.4C1277.43 804.667 1291.83 800.8 1308.63 800.8C1334.23 800.8 1354.23 810 1368.63 828.4C1383.29 846.533 1390.63 871.733 1390.63 904V1004H1306.63V895.6C1306.63 884.133 1304.09 875.333 1299.03 869.2C1294.23 863.067 1287.43 860 1278.63 860C1272.23 860 1265.96 862.133 1259.83 866.4C1253.69 870.4 1248.63 876.267 1244.63 884C1240.89 891.733 1239.03 900.533 1239.03 910.4V1004H1154.63V740.4ZM1534.43 1007.2C1512.03 1007.2 1492.03 1002.8 1474.43 994C1457.1 985.2 1443.5 973.067 1433.63 957.6C1424.03 941.867 1419.23 923.867 1419.23 903.6C1419.23 883.333 1424.17 865.467 1434.03 850C1443.9 834.267 1457.5 822.133 1474.83 813.6C1492.43 805.067 1512.43 800.8 1534.83 800.8C1557.5 800.8 1577.5 805.2 1594.83 814C1612.43 822.533 1626.03 834.533 1635.63 850C1645.23 865.467 1650.03 883.333 1650.03 903.6C1650.03 924.133 1645.1 942.267 1635.23 958C1625.63 973.467 1612.03 985.6 1594.43 994.4C1577.1 1002.93 1557.1 1007.2 1534.43 1007.2ZM1535.23 947.2C1546.17 947.2 1555.1 943.2 1562.03 935.2C1569.23 926.933 1572.83 916.4 1572.83 903.6C1572.83 890.8 1569.23 880.4 1562.03 872.4C1555.1 864.133 1546.17 860 1535.23 860C1524.3 860 1515.23 864.133 1508.03 872.4C1501.1 880.4 1497.63 890.8 1497.63 903.6C1497.63 916.4 1501.1 926.933 1508.03 935.2C1515.23 943.2 1524.3 947.2 1535.23 947.2ZM1680.02 806.4H1764.42V841.2C1777.22 814.267 1798.95 800.8 1829.62 800.8C1847.48 800.8 1863.88 805.333 1878.82 814.4C1894.02 823.2 1905.88 835.467 1914.42 851.2C1923.22 866.933 1927.62 884.533 1927.62 904C1927.62 923.467 1923.08 941.067 1914.02 956.8C1905.22 972.533 1893.22 984.933 1878.02 994C1863.08 1002.8 1847.08 1007.2 1830.02 1007.2C1799.62 1007.2 1777.75 993.733 1764.42 966.8V1056L1680.02 1072V806.4ZM1804.42 944C1815.35 944 1824.68 940 1832.42 932C1840.15 924 1844.02 914.667 1844.02 904C1844.02 892.8 1840.02 883.333 1832.02 875.6C1824.28 867.867 1815.08 864 1804.42 864C1793.48 864 1784.15 867.867 1776.42 875.6C1768.68 883.067 1764.82 892 1764.82 902.4V904C1764.82 915.2 1768.68 924.667 1776.42 932.4C1784.42 940.133 1793.75 944 1804.42 944Z" fill="#367DC1"/>
</svg>
