<svg width="24" height="24" viewBox="0 0 24 24" fill="none" xmlns="http://www.w3.org/2000/svg">
<path d="M21.7494 5.96017C21.0322 6.26954 20.2518 6.4922 19.4478 6.57892C20.2825 6.08306 20.9075 5.2997 21.2057 4.37579C20.4225 4.8417 19.5645 5.16841 18.6697 5.34142C18.2958 4.94163 17.8435 4.62315 17.3411 4.40581C16.8386 4.18847 16.2968 4.07693 15.7494 4.07813C13.5346 4.07813 11.7533 5.87345 11.7533 8.07657C11.7533 8.38595 11.7908 8.69532 11.8518 8.99298C8.53535 8.81954 5.57754 7.23517 3.61113 4.80938C3.25283 5.42137 3.06507 6.1182 3.06738 6.82735C3.06738 8.21485 3.77285 9.43829 4.84863 10.1578C4.21466 10.1329 3.59553 9.9586 3.0416 9.64923V9.69845C3.0416 11.6414 4.41504 13.2516 6.24551 13.6219C5.90182 13.7112 5.54826 13.7568 5.19316 13.7578C4.93301 13.7578 4.68691 13.732 4.43848 13.6969C4.94473 15.2813 6.41894 16.432 8.17441 16.4695C6.80098 17.5453 5.08066 18.1781 3.2127 18.1781C2.87754 18.1781 2.56816 18.1664 2.24707 18.1289C4.01895 19.2656 6.12129 19.9219 8.38535 19.9219C15.7354 19.9219 19.7572 13.8328 19.7572 8.54767C19.7572 8.37423 19.7572 8.20079 19.7455 8.02735C20.5236 7.45782 21.2057 6.75235 21.7494 5.96017Z" fill="#ED9738"/>
</svg>
