<svg width="72" height="64" viewBox="0 0 72 64" fill="none" xmlns="http://www.w3.org/2000/svg">
<path d="M29.6111 38.69V36.4541C29.6111 36.1477 29.5514 35.8595 29.432 35.5894C29.3177 35.3142 29.1593 35.0753 28.9567 34.8727C28.7542 34.6702 28.5153 34.5118 28.24 34.3975C27.97 34.2781 27.6817 34.2183 27.3753 34.2183C27.0689 34.2183 26.7781 34.2781 26.5028 34.3975C26.2327 34.5118 25.9964 34.6702 25.7939 34.8727C25.5913 35.0753 25.4303 35.3142 25.3109 35.5894C25.1966 35.8595 25.1395 36.1477 25.1395 36.4541V38.69H29.6111ZM31.8469 43.1538H29.6111V40.918H25.1395V43.1538H22.9115V36.4541C22.9115 35.8361 23.0283 35.257 23.262 34.7169C23.4957 34.1716 23.8125 33.6964 24.2124 33.2913C24.6175 32.8862 25.0902 32.5668 25.6303 32.3331C26.1756 32.0994 26.7573 31.9825 27.3753 31.9825C27.9933 31.9825 28.5724 32.0994 29.1125 32.3331C29.6579 32.5668 30.1331 32.8862 30.5382 33.2913C30.9433 33.6964 31.2627 34.1716 31.4964 34.7169C31.7301 35.257 31.8469 35.8361 31.8469 36.4541V43.1538ZM36.0225 34.2183V38.69H38.2584C38.5648 38.69 38.853 38.6328 39.1231 38.5186C39.3932 38.3991 39.6295 38.2381 39.832 38.0356C40.0346 37.833 40.193 37.5967 40.3072 37.3267C40.4267 37.0514 40.4864 36.7606 40.4864 36.4541C40.4864 36.1477 40.4267 35.8595 40.3072 35.5894C40.193 35.3142 40.0346 35.0753 39.832 34.8727C39.6295 34.6702 39.3932 34.5118 39.1231 34.3975C38.853 34.2781 38.5648 34.2183 38.2584 34.2183H36.0225ZM36.0225 43.1538H33.7867V31.9825H38.2584C38.6687 31.9825 39.0634 32.037 39.4425 32.1461C39.8216 32.25 40.1748 32.4006 40.502 32.5979C40.8344 32.7901 41.1356 33.0238 41.4056 33.2991C41.6809 33.5691 41.9146 33.8704 42.1068 34.2027C42.3041 34.5351 42.4547 34.8909 42.5586 35.27C42.6677 35.6491 42.7222 36.0439 42.7222 36.4541C42.7222 37.067 42.6054 37.6461 42.3716 38.1914C42.1379 38.7315 41.8185 39.2041 41.4134 39.6092C41.0083 40.0143 40.5331 40.3337 39.9878 40.5674C39.4477 40.8011 38.8712 40.918 38.2584 40.918H36.0225V43.1538ZM46.2746 43.1538H44.0388V31.9825H46.2746V43.1538Z" fill="#5AB7C1"/>
<circle cx="15.5" cy="16.5" r="2.5" fill="#ED9738"/>
<circle cx="21.5308" cy="16.5" r="2.5" fill="#ED9738"/>
<circle cx="27.5615" cy="16.5" r="2.5" fill="#ED9738"/>
<rect x="9" y="9" width="54" height="46" rx="2.54545" stroke="#1F2360" stroke-width="2"/>
<line x1="8.72314" y1="23.3633" x2="62.7231" y2="23.3633" stroke="#1F2360" stroke-width="2"/>
</svg>
